<?xml version="1.0" encoding="UTF-8"?>
<svg xmlns="http://www.w3.org/2000/svg" version="1.1" viewBox="0 0 85.4 14">
  <!-- Generator: Adobe Illustrator 28.6.0, SVG Export Plug-In . SVG Version: 1.2.0 Build 709)  -->
  <g>
    <g id="Layer_1">
      <g>
        <path d="M85.4.3v1.5h-4.2v11.9h-1.8V1.8h-4.2V.3h10.2Z"/>
        <path d="M69.4,14c-4.1,0-6-3.2-6-7s2.1-7,6.1-7,4.9,1.9,5.3,4.7l-1.8.2c-.3-2-1.5-3.3-3.6-3.3s-4.1,2.2-4.1,5.4,1.4,5.5,4.1,5.5,3.2-1.3,3.6-3.3l1.7.3c-.5,2.5-2.1,4.5-5.3,4.5Z"/>
        <path d="M54.8,12.2h6.6v1.5h-8.4V.3h8.3v1.5h-6.5v4.3h6.2v1.5h-6.2v4.6Z"/>
        <path d="M48.3,13.7l-3.3-5.6h-2.7v5.6h-1.8V.3h4.9c3.5,0,4.4,2,4.4,3.9s-.8,3.1-3,3.7l3.4,5.8h-2ZM42.3,1.8v4.8h3c2.1,0,2.7-1.1,2.7-2.4s-.7-2.4-2.7-2.4h-3Z"/>
        <path d="M35.8,13.7l-3.3-5.6h-2.7v5.6h-1.8V.3h4.9c3.5,0,4.4,2,4.4,3.9s-.8,3.1-3,3.7l3.4,5.8h-2ZM29.8,1.8v4.8h3c2.1,0,2.7-1.1,2.7-2.4s-.7-2.4-2.7-2.4h-3Z"/>
        <path d="M19.2,14c-3.7,0-6.1-2.7-6.1-7S15.5,0,19.2,0s6.1,2.6,6.1,7-2.4,7-6.1,7ZM19.2,12.5c2.7,0,4.2-2.1,4.2-5.5s-1.5-5.5-4.2-5.5-4.2,2.1-4.2,5.5,1.6,5.5,4.2,5.5Z"/>
        <path d="M6,14C1.9,14,0,10.8,0,7S2.1,0,6.1,0s4.9,1.9,5.3,4.7l-1.8.2c-.3-2-1.5-3.3-3.6-3.3S1.9,3.7,1.9,6.9s1.4,5.5,4.1,5.5,3.2-1.3,3.6-3.3l1.7.3c-.5,2.5-2.1,4.5-5.3,4.5Z"/>
      </g>
    </g>
  </g>
</svg>