<?xml version="1.0" encoding="UTF-8"?>
<svg xmlns="http://www.w3.org/2000/svg" version="1.1" viewBox="0 0 87.7 14">
  <!-- Generator: Adobe Illustrator 28.6.0, SVG Export Plug-In . SVG Version: 1.2.0 Build 709)  -->
  <g>
    <g id="Layer_1">
      <g>
        <path d="M82.8,14c-3.4,0-5.1-1.8-5.4-4.3l1.8-.3c.2,1.6,1.3,3.1,3.6,3.1s3-.6,3-2.3-1-2.1-2.5-2.4l-1.9-.4c-1.9-.4-3.3-1.4-3.3-3.7s1.8-3.7,4.6-3.7,4.7,1.2,4.9,3.8l-1.8.4c-.2-1.8-1.2-2.8-3.2-2.8s-2.8.8-2.8,2.2.7,2,2.2,2.3l2,.4c2.1.4,3.7,1.4,3.7,3.8s-1.5,3.9-4.9,3.9Z"/>
        <path d="M69.4,12.2h6.6v1.5h-8.4V.3h8.3v1.5h-6.5v4.3h6.2v1.5h-6.2v4.6Z"/>
        <path d="M63.3,13.7l-4.5-6.7-2,2.2v4.6h-1.8V.3h1.8v6.6L62.7.3h2.2l-4.9,5.3,5.3,8h-2.1Z"/>
        <path d="M50.9,13.7l-1.4-3.9h-5.5l-1.4,3.9h-1.8L45.9.3h1.8l5.1,13.4h-1.8ZM44.6,8.3h4.4l-1.9-5.2c-.1-.3-.2-.6-.3-1h0c-.1.4-.2.7-.3,1l-1.9,5.2Z"/>
        <path d="M41.7.3v1.5h-4.2v11.9h-1.8V1.8h-4.2V.3h10.2Z"/>
        <path d="M26.2,14c-3.4,0-5.1-1.8-5.4-4.3l1.8-.3c.2,1.6,1.3,3.1,3.6,3.1s3-.6,3-2.3-1-2.1-2.5-2.4l-1.9-.4c-1.9-.4-3.4-1.4-3.4-3.7s1.8-3.7,4.6-3.7,4.7,1.2,4.9,3.8l-1.8.4c-.2-1.8-1.2-2.8-3.2-2.8s-2.8.8-2.8,2.2.7,2,2.2,2.3l2,.4c2.1.4,3.7,1.4,3.7,3.8s-1.5,3.9-4.9,3.9Z"/>
        <path d="M18.4,13.7h-1.8V.3h1.8v13.4Z"/>
        <path d="M0,13.7V.3h2.5l3.5,10.3c.2.7.3.8.3,1.3h0c0-.5.1-.6.3-1.3L10.3.3h2.5v13.4h-1.6V3.4c0-.5,0-1,0-1.4h0c0,.3-.2,1.1-.4,1.5l-3.5,10.2h-1.7L2,3.5c-.2-.5-.4-1.3-.4-1.5h0c0,.4,0,.9,0,1.4v10.3H0Z"/>
      </g>
    </g>
  </g>
</svg>