<svg width="356" height="122" viewBox="0 0 356 122" fill="none" xmlns="http://www.w3.org/2000/svg">
<path d="M342.604 1.28125V7.31692H325.78V54.8479H318.613V7.31692H301.788V1.28125H342.604Z" fill="black"/>
<path d="M278.103 56.1318C261.505 56.1318 253.96 43.4569 253.96 27.915C253.96 11.4678 262.41 0 278.329 0C291.382 0 298.172 7.69549 299.53 18.786L292.212 19.5405C291.155 11.4678 286.251 6.11112 277.952 6.11112C267.465 6.11112 261.505 14.8629 261.505 27.8396C261.505 40.3636 267.163 49.8698 278.103 49.8698C285.723 49.8698 291.08 44.8149 292.589 36.8176L299.53 38.0248C297.493 48.1345 291.004 56.1318 278.103 56.1318Z" fill="black"/>
<path d="M219.819 48.8122H246.376V54.8479H212.652V1.28125H245.848V7.31692H219.819V24.3677H244.565V30.4034H219.819V48.8122Z" fill="black"/>
<path d="M193.638 54.8479L180.51 32.5913H169.646V54.8479H162.479V1.28125H182.321C196.354 1.28125 200.051 9.12763 200.051 16.974C200.051 23.0097 196.957 29.5735 187.979 31.6105L201.71 54.8479H193.638ZM169.646 7.31692V26.5556H181.491C189.79 26.5556 192.506 22.3307 192.506 16.974C192.506 11.4665 189.714 7.31692 181.491 7.31692H169.646Z" fill="black"/>
<path d="M143.465 54.8479L130.337 32.5913H119.473V54.8479H112.306V1.28125H132.148C146.181 1.28125 149.878 9.12763 149.878 16.974C149.878 23.0097 146.784 29.5735 137.806 31.6105L151.538 54.8479H143.465ZM119.473 7.31692V26.5556H131.318C139.617 26.5556 142.333 22.3307 142.333 16.974C142.333 11.4665 139.542 7.31692 131.318 7.31692H119.473Z" fill="black"/>
<path d="M76.9042 56.1318C62.0414 56.1318 52.3843 45.1921 52.3843 28.0659C52.3843 10.5624 62.0414 0 76.9042 0C91.6916 0 101.349 10.5624 101.349 28.0659C101.349 45.4185 91.6916 56.1318 76.9042 56.1318ZM76.9042 50.0961C87.6175 50.0961 93.8041 41.7216 93.8041 28.0659C93.8041 14.3347 87.6175 6.03568 76.9042 6.03568C66.1909 6.03568 59.9289 14.3347 59.9289 28.0659C59.9289 41.4953 66.1909 50.0961 76.9042 50.0961Z" fill="black"/>
<path d="M24.1427 56.1318C7.5446 56.1318 0 43.4569 0 27.915C0 11.4678 8.44995 0 24.369 0C37.4212 0 44.2113 7.69549 45.5694 18.786L38.2511 19.5405C37.1949 11.4678 32.2909 6.11112 23.9918 6.11112C13.5048 6.11112 7.54459 14.8629 7.54459 27.8396C7.54459 40.3636 13.203 49.8698 24.1427 49.8698C31.7627 49.8698 37.1194 44.8149 38.6283 36.8176L45.5694 38.0248C43.5323 48.1345 37.044 56.1318 24.1427 56.1318Z" fill="black"/>
<path d="M335.994 121.132C322.339 121.132 315.398 113.738 314.492 103.93L321.735 102.874C322.716 109.438 326.79 115.247 336.221 115.247C342.03 115.247 348.141 112.833 348.141 106.043C348.141 99.7051 344.218 97.6681 337.956 96.3855L330.185 94.8012C322.565 93.2168 316.756 89.2182 316.756 80.0137C316.756 71.0357 323.998 65 335.391 65C346.029 65 354.177 69.7531 355.233 80.2401L348.066 81.749C347.16 74.5816 343.162 70.6584 335.24 70.6584C328.676 70.6584 324.149 73.9026 324.149 79.3347C324.149 84.5405 326.941 87.2566 332.901 88.5391L340.747 90.1989C349.046 91.9342 355.535 95.6311 355.535 105.364C355.535 113.663 349.348 121.132 335.994 121.132Z" fill="black"/>
<path d="M282.22 113.812H308.777V119.848H275.052V66.2812H308.248V72.3169H282.22V89.3677H306.966V95.4034H282.22V113.812Z" fill="black"/>
<path d="M257.628 119.848L239.747 92.8382L231.825 101.515V119.848H224.658V66.2812H231.825V92.8382L255.364 66.2812H264.342L244.651 87.7079L266.002 119.848H257.628Z" fill="black"/>
<path d="M208.221 119.848L202.714 104.381H180.834L175.327 119.848H167.933L188.228 66.2812H195.32L215.615 119.848H208.221ZM182.947 98.3458H200.601L193.132 77.4472C192.679 76.2401 192.302 74.9575 191.849 73.3732H191.699C191.246 74.9575 190.869 76.2401 190.416 77.4472L182.947 98.3458Z" fill="black"/>
<path d="M171.38 66.2812V72.3169H154.555V119.848H147.388V72.3169H130.563V66.2812H171.38Z" fill="black"/>
<path d="M109.147 121.132C95.4914 121.132 88.5504 113.738 87.645 103.93L94.8878 102.874C95.8686 109.438 99.9427 115.247 109.373 115.247C115.183 115.247 121.294 112.833 121.294 106.043C121.294 99.7051 117.371 97.6681 111.109 96.3855L103.338 94.8012C95.7177 93.2168 89.9084 89.2182 89.9084 80.0137C89.9084 71.0357 97.1512 65 108.544 65C119.181 65 127.33 69.7531 128.386 80.2401L121.218 81.749C120.313 74.5816 116.314 70.6584 108.393 70.6584C101.829 70.6584 97.3021 73.9026 97.3021 79.3347C97.3021 84.5405 100.094 87.2566 106.054 88.5391L113.9 90.1989C122.199 91.9342 128.688 95.6311 128.688 105.364C128.688 113.663 122.501 121.132 109.147 121.132Z" fill="black"/>
<path d="M77.8436 119.848H70.6763V66.2812H77.8436V119.848Z" fill="black"/>
<path d="M4 119.848V66.2812H14.1852L28.369 107.475C29.2744 110.115 29.4253 110.568 29.7271 112.53H29.8779C30.1797 110.568 30.3306 110.115 31.236 107.475L45.4198 66.2812H55.605V119.848H49.0412V78.5035C49.0412 76.3156 49.1167 74.5049 49.343 72.7696H49.0412C48.8903 73.8258 48.1359 77.07 47.4569 78.8807L33.273 119.848H26.332L12.1482 78.8807C11.4692 77.07 10.7147 73.8258 10.5638 72.7696H10.262C10.4884 74.5049 10.5638 76.3156 10.5638 78.5035V119.848H4Z" fill="black"/>
</svg>
