<svg width="181" height="14" viewBox="0 0 181 14" fill="none" xmlns="http://www.w3.org/2000/svg">
<path d="M175.203 14C171.797 14 170.065 12.1559 169.84 9.70968L171.646 9.44624C171.891 11.0833 172.907 12.5323 175.259 12.5323C176.708 12.5323 178.232 11.9301 178.232 10.2366C178.232 8.65591 177.254 8.14785 175.692 7.82796L173.754 7.4328C171.853 7.03763 170.404 6.04032 170.404 3.74462C170.404 1.50538 172.211 0 175.052 0C177.705 0 179.738 1.18548 180.001 3.80108L178.213 4.17742C177.988 2.38979 176.99 1.41129 175.014 1.41129C173.377 1.41129 172.248 2.22043 172.248 3.57527C172.248 4.87366 172.944 5.55108 174.431 5.87097L176.388 6.28495C178.458 6.71774 180.076 7.63978 180.076 10.0672C180.076 12.1371 178.533 14 175.203 14Z" fill="black"/>
<path d="M161.79 12.1744H168.414V13.6798H160.003V0.31958H168.282V1.82496H161.79V6.07764H167.962V7.58302H161.79V12.1744Z" fill="black"/>
<path d="M155.657 13.6798L151.197 6.94324L149.221 9.10721V13.6798H147.434V0.31958H149.221V6.94324L155.092 0.31958H157.332L152.42 5.66367L157.746 13.6798H155.657Z" fill="black"/>
<path d="M143.334 13.6798L141.961 9.82227H136.504L135.13 13.6798H133.286L138.348 0.31958H140.117L145.178 13.6798H143.334ZM137.031 8.31689H141.434L139.571 3.10453C139.458 2.80345 139.364 2.48356 139.251 2.0884H139.213C139.1 2.48356 139.006 2.80345 138.893 3.10453L137.031 8.31689Z" fill="black"/>
<path d="M134.145 0.31958V1.82496H129.949V13.6798H128.162V1.82496H123.965V0.31958H134.145Z" fill="black"/>
<path d="M118.624 14C115.218 14 113.487 12.1559 113.261 9.70968L115.067 9.44624C115.312 11.0833 116.328 12.5323 118.68 12.5323C120.129 12.5323 121.653 11.9301 121.653 10.2366C121.653 8.65591 120.675 8.14785 119.113 7.82796L117.175 7.4328C115.274 7.03763 113.825 6.04032 113.825 3.74462C113.825 1.50538 115.632 0 118.473 0C121.127 0 123.159 1.18548 123.422 3.80108L121.635 4.17742C121.409 2.38979 120.411 1.41129 118.436 1.41129C116.799 1.41129 115.67 2.22043 115.67 3.57527C115.67 4.87366 116.366 5.55108 117.852 5.87097L119.809 6.28495C121.879 6.71774 123.497 7.63978 123.497 10.0672C123.497 12.1371 121.954 14 118.624 14Z" fill="black"/>
<path d="M110.816 13.6798H109.029V0.31958H110.816V13.6798Z" fill="black"/>
<path d="M92.3988 13.6798V0.31958H94.9391L98.4768 10.5938C98.7026 11.2524 98.7402 11.3653 98.8155 11.8545H98.8531C98.9284 11.3653 98.966 11.2524 99.1918 10.5938L102.729 0.31958H105.27V13.6798H103.633V3.36797C103.633 2.82227 103.651 2.37066 103.708 1.93786H103.633C103.595 2.2013 103.407 3.01044 103.238 3.46205L99.6999 13.6798H97.9687L94.4311 3.46205C94.2617 3.01044 94.0735 2.2013 94.0359 1.93786H93.9606C94.0171 2.37066 94.0359 2.82227 94.0359 3.36797V13.6798H92.3988Z" fill="black"/>
<path d="M85.45 0.31958V1.82496H81.2538V13.6798H79.4661V1.82496H75.2699V0.31958H85.45Z" fill="black"/>
<path d="M69.3626 14C65.2228 14 63.3411 10.8387 63.3411 6.96237C63.3411 2.86021 65.4486 0 69.419 0C72.6744 0 74.3679 1.91936 74.7067 4.68548L72.8814 4.87366C72.6179 2.86021 71.3948 1.52419 69.3249 1.52419C66.7093 1.52419 65.2228 3.70699 65.2228 6.94355C65.2228 10.0672 66.6341 12.4382 69.3626 12.4382C71.2631 12.4382 72.5991 11.1774 72.9755 9.1828L74.7067 9.48387C74.1986 12.0054 72.5803 14 69.3626 14Z" fill="black"/>
<path d="M54.8257 12.1744H61.4494V13.6798H53.0381V0.31958H61.3177V1.82496H54.8257V6.07764H60.9978V7.58302H54.8257V12.1744Z" fill="black"/>
<path d="M48.2958 13.6798L45.0216 8.12872H42.3119V13.6798H40.5243V0.31958H45.4732C48.9732 0.31958 49.8953 2.27657 49.8953 4.23356C49.8953 5.73893 49.1237 7.37603 46.8845 7.8841L50.3092 13.6798H48.2958ZM42.3119 1.82496V6.62334H45.2662C47.3361 6.62334 48.0135 5.56958 48.0135 4.23356C48.0135 2.8599 47.3173 1.82496 45.2662 1.82496H42.3119Z" fill="black"/>
<path d="M35.782 13.6798L32.5078 8.12872H29.7981V13.6798H28.0105V0.31958H32.9594C36.4594 0.31958 37.3815 2.27657 37.3815 4.23356C37.3815 5.73893 36.61 7.37603 34.3707 7.8841L37.7954 13.6798H35.782ZM29.7981 1.82496V6.62334H32.7524C34.8223 6.62334 35.4997 5.56958 35.4997 4.23356C35.4997 2.8599 34.8035 1.82496 32.7524 1.82496H29.7981Z" fill="black"/>
<path d="M19.1809 14C15.4739 14 13.0653 11.2715 13.0653 7C13.0653 2.63441 15.4739 0 19.1809 0C22.8691 0 25.2777 2.63441 25.2777 7C25.2777 11.328 22.8691 14 19.1809 14ZM19.1809 12.4946C21.8529 12.4946 23.396 10.4059 23.396 7C23.396 3.57527 21.8529 1.50538 19.1809 1.50538C16.5089 1.50538 14.947 3.57527 14.947 7C14.947 10.3495 16.5089 12.4946 19.1809 12.4946Z" fill="black"/>
<path d="M6.0215 14C1.88172 14 0 10.8387 0 6.96237C0 2.86021 2.10753 0 6.07796 0C9.33333 0 11.0269 1.91936 11.3656 4.68548L9.54032 4.87366C9.27688 2.86021 8.05376 1.52419 5.98387 1.52419C3.36828 1.52419 1.88172 3.70699 1.88172 6.94355C1.88172 10.0672 3.29301 12.4382 6.0215 12.4382C7.92204 12.4382 9.25806 11.1774 9.63441 9.1828L11.3656 9.48387C10.8575 12.0054 9.23925 14 6.0215 14Z" fill="black"/>
</svg>
